<svg width="57" height="56" viewBox="0 0 57 56" fill="none" xmlns="http://www.w3.org/2000/svg">
<rect x="0.5" width="56" height="56" rx="28" fill="#D6D6D7"/>
<g clip-path="url(#clip0_4_41527)">
<path fill-rule="evenodd" clip-rule="evenodd" d="M44.02 20.1842L43.7711 19.7842C43.45 19.3005 42.9972 18.8984 42.4555 18.6162L30.5267 12.4242C29.9866 12.1422 29.3734 11.9932 28.7489 11.9922H28.2333C27.6088 11.9932 26.9956 12.1422 26.4556 12.4242L14.5267 18.6322C13.9879 18.9126 13.5405 19.3153 13.2289 19.8002L12.98 20.2002C12.6667 20.6863 12.5011 21.2381 12.5 21.8001V34.2001C12.5011 34.7622 12.6667 35.314 12.98 35.8001L13.2289 36.2001C13.5485 36.6793 13.9942 37.0804 14.5267 37.3681L26.4733 43.5601C27.0107 43.8479 27.6257 43.9973 28.2511 43.9921H28.7489C29.3734 43.9911 29.9866 43.8421 30.5267 43.5601L42.4555 37.3521C42.9995 37.078 43.4488 36.6737 43.7533 36.1841L44.02 35.7841C44.3295 35.2966 44.4948 34.7457 44.5 34.1841V21.7841C44.4989 21.2221 44.3334 20.6703 44.02 20.1842ZM28.2333 15.1922H28.7489L39.1667 20.6002L28.5 26.1361L17.8333 20.6002L28.2333 15.1922ZM30.2778 39.9921L40.6778 34.5841L40.9444 34.1841V23.3681L30.2778 28.9201V39.9921Z" fill="white"/>
</g>
<defs>
<clipPath id="clip0_4_41527">
<rect width="32" height="32" fill="white" transform="translate(12.5 12)"/>
</clipPath>
</defs>
</svg>
