<svg width="56" height="56" viewBox="0 0 56 56" fill="none" xmlns="http://www.w3.org/2000/svg">
<rect width="56" height="56" rx="28" fill="black"/>
<g clip-path="url(#clip0_4_41517)">
<path fill-rule="evenodd" clip-rule="evenodd" d="M43.52 20.1842L43.2711 19.7842C42.95 19.3005 42.4972 18.8984 41.9555 18.6162L30.0267 12.4242C29.4866 12.1422 28.8734 11.9932 28.2489 11.9922H27.7333C27.1088 11.9932 26.4956 12.1422 25.9556 12.4242L14.0267 18.6322C13.4879 18.9126 13.0405 19.3153 12.7289 19.8002L12.48 20.2002C12.1667 20.6863 12.0011 21.2381 12 21.8001V34.2001C12.0011 34.7622 12.1667 35.314 12.48 35.8001L12.7289 36.2001C13.0485 36.6793 13.4942 37.0804 14.0267 37.3681L25.9733 43.5601C26.5107 43.8479 27.1257 43.9973 27.7511 43.9921H28.2489C28.8734 43.9911 29.4866 43.8421 30.0267 43.5601L41.9555 37.3521C42.4995 37.078 42.9488 36.6737 43.2533 36.1841L43.52 35.7841C43.8295 35.2966 43.9948 34.7457 44 34.1841V21.7841C43.9989 21.2221 43.8334 20.6703 43.52 20.1842ZM27.7333 15.1922H28.2489L38.6667 20.6002L28 26.1361L17.3333 20.6002L27.7333 15.1922ZM29.7778 39.9921L40.1778 34.5841L40.4444 34.1841V23.3681L29.7778 28.9201V39.9921Z" fill="white"/>
</g>
<defs>
<clipPath id="clip0_4_41517">
<rect width="32" height="32" fill="white" transform="translate(12 12)"/>
</clipPath>
</defs>
</svg>
