<svg width="55" height="18" viewBox="0 0 55 18" fill="none" xmlns="http://www.w3.org/2000/svg">
<path d="M26.8247 0.621098L23.2046 17.5432H18.8272L22.4478 0.621098H26.8247ZM45.2422 11.5478L47.5469 5.19294L48.873 11.5478H45.2422ZM50.1263 17.5432H54.1754L50.6421 0.621098H46.9047C46.0649 0.621098 45.3563 1.10956 45.0408 1.86261L38.4734 17.5432H43.0704L43.983 15.0163H49.5993L50.1263 17.5432ZM38.7015 12.018C38.7203 7.5517 32.525 7.30586 32.5679 5.31077C32.5807 4.70287 33.1597 4.05801 34.4243 3.89251C35.0525 3.81057 36.7798 3.7479 38.7411 4.65038L39.5092 1.06189C38.4557 0.679478 37.1001 0.311523 35.414 0.311523C31.0875 0.311523 28.0421 2.61191 28.0164 5.90581C27.9891 8.3417 30.1904 9.70104 31.8491 10.5109C33.5545 11.3405 34.1275 11.8718 34.12 12.6136C34.1088 13.7496 32.7596 14.2498 31.501 14.2697C29.2997 14.3045 28.0223 13.6757 27.0041 13.2012L26.2109 16.9091C27.2334 17.3788 29.1213 17.7869 31.08 17.8078C35.6781 17.8078 38.6865 15.5358 38.7015 12.018ZM20.5695 0.621098L13.4772 17.5432H8.84909L5.35916 4.03819C5.14706 3.20641 4.96282 2.9022 4.3185 2.55138C3.26713 1.98097 1.52912 1.44484 0 1.11277L0.104441 0.621098H7.55295C8.50203 0.621098 9.3563 1.2531 9.57161 2.34625L11.4151 12.1391L15.9704 0.621098H20.5695Z" fill="#1434CB"/>
</svg>
